<svg version="1.1" xmlns="http://www.w3.org/2000/svg" viewBox="-295.93599910736083 -1411.8400375366211 8679.605030318702 2158.0800384521485"><desc>Created with Snap</desc><defs></defs><g><g transform="matrix(17.1711,0,0,17.1711,6445.2165,-1190.4954)"><g><path d="M78.4,66.5c-5.5,4.8-9.9,15.2-9.9,15.2s-6.9-11.4-12.9-15.3c-9.5-6.1-13.6-6.2-13.6-6.2V65c0,0,7.8,1.2,11.7,4.6   c8.2,7.1,14.8,18.5,14.8,18.5S74.4,75,80.1,70.5C88.1,64.3,95,65,95,65v-4.8C95,60.1,85.1,60.7,78.4,66.5z" fill="#a3003f" style=""></path><path d="M42,80c-6.4-3.6-17.8-4.3-17.8-4.3s8.7-10.1,10.5-17C37.5,47.9,36.2,44,36.2,44l-4.6,1.6c0,0,1.3,7.7-0.6,12.4   c-4.1,9.9-13,19.8-13,19.8s14.6,1.3,20.7,5.1c8.6,5.4,10.2,12,10.2,12l4.6-1.6C53.5,93.4,49.7,84.4,42,80z" fill="#a3003f" style=""></path><path d="M35.3,36.8c11.3-0.9,14.6-3.4,14.6-3.4l-3-3.8c0,0-6.9,3.7-12.1,3.4c-10.9-0.6-23.3-5.6-23.3-5.6s3.5,14,1.8,20.9   C10.9,58.2,5,61.8,5,61.8l3,3.8c0,0,7.5-6.5,9.1-15.1c1.3-7.1-1.7-18-1.7-18S28,37.4,35.3,36.8z" fill="#a3003f" style=""></path><path d="M37.4,17.8c7.3-1.1,16.7-7.4,16.7-7.4s-0.6,13.2,2.4,19.8c4.6,10.2,8,12.5,8,12.5l2.7-4c0,0-5.9-5.2-7.3-10.2   C56.9,18.2,57.7,5,57.7,5s-12.3,7.8-19.5,8.5c-10.2,1-15.6-3.3-15.6-3.3l-2.7,4.1C19.9,14.2,28.6,19.1,37.4,17.8z" fill="#a3003f" style=""></path><path d="M65,60.5c0,0,3.1-7.2,7.4-10.1c9-6.1,21.9-9.7,21.9-9.7s-11.5-8.9-14.5-15.4c-4.2-9.1-1.9-15.6-1.9-15.6l-4.8-1.2   c0,0-1.9,9.6,2.2,17.4c3.4,6.4,12.5,13.2,12.5,13.2S75,42.9,69.6,47.8c-8.3,7.6-9.4,11.5-9.4,11.5L65,60.5z" fill="#a3003f" style=""></path></g><desc>Created with Snap</desc><defs></defs></g><g><g transform="matrix(1.024,0,0,-1.024,0,0)"><path d="M353 0L362 79L430 79L301 292L204 292L182 79L249 79L241 0L11 0L19 79L95 79L147 571L71 571L79 650L311 650L303 571L233 571L212 368L308 368L476 572L409 572L418 651L650 651L642 572L572 572L373 338L533 79L602 79L594 0L353 0ZM641 0L649 79L725 79L777 571L701 571L709 650L948 650L940 571L864 571L812 79L889 79L880 0L641 0ZM965 0L973 79L1046 79L1098 571L1016 571L1024 650L1168 650L1467 182L1470 182L1510 571L1417 571L1426 650L1678 650L1670 571L1593 571L1534 0L1481 0L1173 483L1170 483L1127 79L1225 79L1217 0L965 0ZM2320 342L2311 263L2267 263L2239 0L2171 0L2170 82Q2138 42 2086 16Q2035 -10 1968 -10Q1847 -10 1777 75Q1707 160 1707 290Q1707 392 1750 476Q1793 560 1872 610Q1951 660 2059 660Q2129 660 2188 638Q2247 617 2279 583L2283 456L2208 448L2198 536Q2175 553 2137 566Q2100 579 2052 579Q1941 579 1870 502Q1800 426 1800 296Q1800 186 1851 128Q1903 71 1990 71Q2073 71 2119 115Q2166 160 2174 220L2178 263L2033 263L2042 342L2320 342ZM2816 197Q2816 97 2751 43Q2687 -10 2570 -10Q2507 -10 2448 5Q2390 21 2359 47L2388 185L2459 178L2449 97Q2478 80 2510 74Q2543 69 2568 69Q2636 69 2678 96Q2720 123 2720 188Q2720 252 2680 270Q2641 288 2585 300Q2522 314 2466 346Q2410 379 2410 469Q2410 571 2482 615Q2555 660 2639 660Q2695 660 2748 643Q2801 627 2828 601L2820 468L2748 461L2747 552Q2720 568 2691 574Q2663 580 2639 580Q2578 580 2541 554Q2504 528 2504 478Q2504 427 2540 409Q2576 391 2626 379Q2674 368 2717 352Q2761 336 2788 300Q2816 265 2816 197ZM3086 0L3094 79L3169 79L3221 571L3140 571L3148 650L3304 650L3493 174L3497 174L3777 650L3935 650L3927 571L3846 571L3794 79L3870 79L3862 0L3629 0L3637 79L3706 79L3744 444L3741 444L3500 39L3457 39L3295 450L3291 450L3252 79L3323 79L3315 0L3086 0ZM4398 571L4406 650L4632 650L4624 571L4563 571L4532 267Q4524 198 4496 134Q4469 71 4411 30Q4353 -10 4255 -10Q4113 -10 4063 70Q4013 151 4024 256L4057 571L3995 571L4003 650L4237 650L4228 571L4145 571L4112 259Q4104 172 4139 121Q4174 71 4263 71Q4428 71 4450 267L4481 571L4398 571ZM5104 197Q5104 97 5039 43Q4975 -10 4858 -10Q4795 -10 4736 5Q4678 21 4647 47L4676 185L4747 178L4737 97Q4766 80 4798 74Q4831 69 4856 69Q4924 69 4966 96Q5008 123 5008 188Q5008 252 4968 270Q4929 288 4873 300Q4810 314 4754 346Q4698 379 4698 469Q4698 571 4770 615Q4843 660 4927 660Q4983 660 5036 643Q5089 627 5116 601L5108 468L5036 461L5035 552Q5008 568 4979 574Q4951 580 4927 580Q4866 580 4829 554Q4792 528 4792 478Q4792 427 4828 409Q4864 391 4914 379Q4962 368 5005 352Q5049 336 5076 300Q5104 265 5104 197ZM5164 0L5172 79L5248 79L5300 571L5224 571L5232 650L5471 650L5463 571L5387 571L5335 79L5412 79L5403 0L5164 0ZM6047 188L6018 56Q5980 24 5918 7Q5856 -10 5797 -10Q5659 -10 5585 74Q5511 158 5511 288Q5511 383 5551 468Q5591 553 5669 606Q5747 660 5861 660Q5936 660 5990 637Q6044 614 6075 583L6078 451L6003 443L5995 536Q5937 579 5853 579Q5743 579 5673 504Q5604 429 5604 297Q5604 71 5814 71Q5893 71 5946 100L5973 196L6047 188Z" fill="#424077" style=""></path></g></g></g></svg>